<?xml version="1.0" encoding="UTF-8" standalone="no"?>
<!-- Created with Inkscape (http://www.inkscape.org/) -->

<svg
   width="14in"
   height="8.5in"
   viewBox="0 0 355.6 215.9"
   version="1.1"
   id="svg5"
   inkscape:version="1.1.1 (3bf5ae0d25, 2021-09-20)"
   sodipodi:docname="drawing-1.svg"
   xmlns:inkscape="http://www.inkscape.org/namespaces/inkscape"
   xmlns:sodipodi="http://sodipodi.sourceforge.net/DTD/sodipodi-0.dtd"
   xmlns="http://www.w3.org/2000/svg"
   xmlns:svg="http://www.w3.org/2000/svg">
  <sodipodi:namedview
     id="namedview7"
     pagecolor="#505050"
     bordercolor="#eeeeee"
     borderopacity="1"
     inkscape:pageshadow="0"
     inkscape:pageopacity="0"
     inkscape:pagecheckerboard="0"
     inkscape:document-units="mm"
     showgrid="false"
     inkscape:lockguides="false"
     width="211mm"
     units="in"
     inkscape:zoom="0.32756077"
     inkscape:cx="-2057.6335"
     inkscape:cy="915.8606"
     inkscape:window-width="1920"
     inkscape:window-height="974"
     inkscape:window-x="-11"
     inkscape:window-y="-11"
     inkscape:window-maximized="1"
     inkscape:current-layer="layer1" />
  <defs
     id="defs2">
    <inkscape:perspective
       sodipodi:type="inkscape:persp3d"
       inkscape:vp_x="0 : 67.40002 : 1"
       inkscape:vp_y="0 : 999.99995 : 0"
       inkscape:vp_z="209.99991 : 67.40002 : 1"
       inkscape:persp3d-origin="104.99999 : 17.90002 : 1"
       id="perspective2817" />
  </defs>
  <g
     inkscape:label="Layer 1"
     inkscape:groupmode="layer"
     id="layer1">
    <g
       id="g4610"
       transform="matrix(0.50101613,-0.14413952,0.17854383,0.29078762,57.064565,118.03873)"
       inkscape:transform-center-x="1.6154763"
       inkscape:transform-center-y="-4.0386909"
       style="fill:#ffeeaa">
      <g
         id="g3233"
         transform="matrix(0.2514813,0,0,0.2674967,155.00409,54.858294)"
         style="fill:#ffeeaa">
        <path
           id="path1358"
           style="fill:#ffeeaa;fill-opacity:1;stroke-width:1.13722;stroke-linejoin:round;-inkscape-stroke:none;stop-color:#000000"
           inkscape:transform-center-x="1.0823629"
           inkscape:transform-center-y="-22.441658"
           d="M 107.82525,38.789915 80.259573,128.97053 10.875841,194.30218 104.65437,172.51804 197.3005,198.5154 131.08707,130.11893 Z m -1.74877,37.781357 15.54281,58.412618 42.90453,43.41996 -59.54558,-16.05452 -59.938357,14.59374 44.002762,-42.35753 z" />
        <path
           id="path2559"
           style="fill:#ffeeaa;fill-opacity:1;stroke-width:1.13722;stroke-linejoin:round;-inkscape-stroke:none;stop-color:#000000"
           inkscape:transform-center-x="1.0823629"
           inkscape:transform-center-y="-22.441658"
           d="m 112.52638,35.575426 -27.565674,90.180614 -69.383735,65.33164 93.778539,-21.78414 92.64612,25.99737 -66.21343,-68.39648 z m -1.74877,37.781357 15.54281,58.412617 42.90452,43.41995 -59.54557,-16.05451 -59.938355,14.59374 44.002755,-42.35753 z" />
        <path
           id="path2643"
           style="fill:#ffeeaa;fill-opacity:1;stroke-width:1.13722;stroke-linejoin:round;-inkscape-stroke:none;stop-color:#000000"
           inkscape:transform-center-x="1.0823629"
           inkscape:transform-center-y="-22.441658"
           d="M 104.02961,36.439281 76.463939,126.6199 7.0802047,191.95153 100.85874,170.16739 l 92.64613,25.99737 -66.21343,-68.39647 z m -1.74876,37.781357 15.5428,58.412612 42.90453,43.41995 -59.54557,-16.05451 -59.938362,14.59374 44.002755,-42.35753 z" />
      </g>
      <rect
         style="fill:#ffeeaa;stroke-width:2.49973;stroke-linejoin:round;-inkscape-stroke:none;stop-color:#000000"
         id="rect3117"
         width="16.782408"
         height="23.283146"
         x="131.93129"
         y="179.35715"
         ry="0" />
      <rect
         style="fill:#ffeeaa;stroke-width:2.47815;stroke-linejoin:round;-inkscape-stroke:none;stop-color:#000000"
         id="rect3221"
         width="20.821093"
         height="36.378601"
         x="148.7137"
         y="166.26167"
         ry="0" />
      <rect
         style="fill:#ffeeaa;stroke-width:2.78882;stroke-linejoin:round;-inkscape-stroke:none;stop-color:#000000"
         id="rect3240"
         width="20.821093"
         height="46.071461"
         x="169.53479"
         y="156.56882"
         ry="0" />
      <rect
         style="fill:#ffeeaa;stroke-width:3.91645;stroke-linejoin:round;-inkscape-stroke:none;stop-color:#000000"
         id="rect3242"
         width="20.821093"
         height="90.860275"
         x="190.3559"
         y="111.77998"
         ry="0" />
      <path
         id="rect3302"
         style="fill:#ffeeaa;stroke-width:1.31752;stroke-linejoin:round;-inkscape-stroke:none;stop-color:#000000"
         d="m 186.72729,99.853757 -10.07377,6.14e-4 A 37.290773,66.757983 52.106285 0 1 154.07947,154.99 37.290773,66.757983 52.106285 0 1 117.43078,179.49266 v 1.18821 c 0.0952,-0.10639 0.19917,-0.20603 0.3305,-0.28507 0.0273,-0.0165 0.0545,-0.0315 0.0821,-0.0455 0.30087,-0.21931 0.56601,-0.33983 0.62463,-0.15571 0.25684,-0.0152 0.51946,0.0104 0.7802,0.0221 0.004,3e-4 0.006,9.2e-4 0.0103,0.001 a 38.716802,71.53324 55.353642 0 0 38.8879,-23.1815 38.716802,71.53324 55.353642 0 0 28.7112,-55.91659 c -0.0116,-0.0517 -0.0204,-0.10646 -0.0264,-0.1641 a 38.716802,71.53324 55.353642 0 0 -0.12842,-0.77976 l 0.0906,0.004 c -10e-4,-0.0597 -0.003,-0.11926 -10e-4,-0.17908 -0.0225,-0.04706 -0.0437,-0.09648 -0.0642,-0.147324 z m -68.25934,80.340803 c -0.21395,0.0127 -0.42394,0.0538 -0.62463,0.15572 -0.1357,0.0989 -0.27768,0.21801 -0.41254,0.33837 v 0.3252 l 0.008,-0.0934 a 38.716802,71.53324 55.353642 0 0 1.00002,-0.38629 c 0.008,-0.0258 0.015,-0.0517 0.02,-0.0779 0.0256,-0.11975 0.0273,-0.20522 0.009,-0.26171 z m -1.03717,0.81929 -0.0116,0.13715 c 0.004,-9.2e-4 0.008,-0.003 0.0116,-0.005 z m 72.97771,-80.92173 c -0.0461,0.082 -0.10908,0.16858 -0.18499,0.25812 l 0.1324,0.007 c 0.0172,-0.0824 0.0348,-0.17162 0.0526,-0.26471 z m 21.02138,24.53141 c -0.0345,0.007 -0.0691,0.0138 -0.10365,0.021 -0.015,0.0442 -0.029,0.0882 -0.0433,0.13235 0.0447,0.002 0.0894,0.005 0.1339,0.007 z m -4.17037,41.96169 c 0.009,0.005 0.0385,0.0227 0.0642,0.0378 -7.9e-4,-0.001 -0.001,-0.002 -0.003,-0.005 -0.0606,-0.0328 -0.0747,-0.0409 -0.0619,-0.0335 z m -89.60039,14.6592 c -0.0242,0.0622 -0.061,0.14848 -0.034,0.11496 0.0273,-0.0342 0.0384,-0.0753 0.0526,-0.11496 z m 11.26729,0 c -7.9e-4,0.002 -0.003,0.003 -0.004,0.006 0.008,-0.002 0.015,-0.003 0.0217,-0.006 z m -11.32921,0.30544 c -0.008,0.007 -0.0163,0.0139 -0.0286,0.0257 0.008,-0.005 0.0248,-0.0163 0.0349,-0.0227 -10e-4,-6.2e-4 -0.004,-0.002 -0.006,-0.003 z m -0.25464,0.52883 -0.0193,0.23356 c 0.028,-0.0379 0.058,-0.0754 0.0867,-0.11323 0.008,-0.0325 0.004,-0.0651 0.0116,-0.0976 -0.0275,-0.005 -0.0521,-0.0157 -0.0797,-0.0227 z" />
    </g>
    <path
       id="path4634"
       style="fill:#ffeeaa;stroke-width:8.52784;stroke-linejoin:round;-inkscape-stroke:none;stop-color:#000000"
       inkscape:transform-center-x="2.5989013"
       inkscape:transform-center-y="-29.005164"
       d="M 669.90625 31.84375 L 526.24023 255.95508 L 598.0332 324.76758 L 669.90625 31.84375 z M 598.0332 324.76758 L 520.83203 639.40625 L 831.91797 548.94531 L 598.0332 324.76758 z M 831.91797 548.94531 L 1049.6621 757.65039 L 927.4082 521.17773 L 831.91797 548.94531 z M 520.83203 639.40625 L 231.2168 723.625 L 497.13477 735.98633 L 520.83203 639.40625 z M 605.14062 353.91016 L 710.37109 451.30469 L 801.10352 539.07617 L 665.08789 580.64258 L 544.52734 614.55273 L 575.31055 475.58984 L 605.14062 353.91016 z "
       transform="scale(0.26458333)"
       inkscape:export-filename="C:\Users\PRIOTOSH\Downloads\logo4.png"
       inkscape:export-xdpi="96"
       inkscape:export-ydpi="96" />
  </g>
</svg>
